# xmcd
#
# Track frame offsets:
#	150
#	6975
#	26890
#	52325
#	80095
#	108595
#	184670
#
# Disc length: 2631 seconds
#
# Revision: 2
# Processed by: cddbd v1.5.1PL2 Copyright (c) Steve Scherf et al.
# Submitted via: EasyCDDAExtractor 8.0.2.1
#
DISCID=600a4507
DTITLE=Black Sabbath - Broome County Veterans Memorial Arena Binghampton 23-05
DTITLE=82 Disc 1
DYEAR=1982
DGENRE=Hard Rock
TTITLE0=E5150
TTITLE1=Neon Knights
TTITLE2=NIB
TTITLE3=Children Of The Sea
TTITLE4=Voodoo
TTITLE5=Black Sabbath - War Pigs
TTITLE6=Drum Solo
EXTD=
EXTT0=
EXTT1=
EXTT2=
EXTT3=
EXTT4=
EXTT5=
EXTT6=
PLAYORDER=
